<svg xmlns="http://www.w3.org/2000/svg" viewBox="0 0 210 50" height="50px"><path fill="#FCDD4E" d="M181.622 10.002l-2.753-.695c-.012-.003-.023-.003-.035-.005-.002-.012-.002-.023-.005-.035l-.695-2.753c-.089-.353-.59-.353-.679 0l-.695 2.753c-.003.012-.003.023-.005.035-.012.002-.023.002-.035.005l-2.753.695c-.353.089-.353.59 0 .679l2.753.695c.012.003.023.003.035.005.002.012.002.023.005.035l.695 2.753c.089.353.59.353.679 0l.695-2.753c.003-.012.003-.023.005-.035.012-.002.023-.002.035-.005l2.753-.695c.352-.089.352-.59 0-.679z"/><path fill="#381B51" d="M201.789 37.14l-1.858-.469-.024-.003-.003-.024-.469-1.858c-.06-.238-.398-.238-.458 0l-.469 1.858-.003.024-.024.003-1.858.469c-.238.06-.238.398 0 .458l1.858.469.024.003.003.024.469 1.858c.06.238.398.238.458 0l.469-1.858.003-.024.024-.003 1.858-.469c.238-.06.238-.398 0-.458z"/><path fill="none" stroke="#381B51" stroke-width="1.497" stroke-miterlimit="10" d="M199.839 23.855c-.007 1.145-.416 2.289-1.19 3.141-2.232 2.386-9.223 9.231-10.365 10.373 3.239-3.239.945-8.778-3.637-8.778h-3.006c-2.564 0-4.688-2.177-4.688-4.736 0-1.199.458-2.4 1.373-3.315l10.199-10.199c-3.239 3.239-.945 8.778 3.637 8.778 1.088 0 2.189-.051 3.275.008 2.418.13 4.416 2.303 4.402 4.728z"/><path fill="#FCDD4E" stroke="#381B51" stroke-width="1.497" stroke-miterlimit="10" d="M198.795 4.088l-3.29 3.29a4.68 4.68 0 011.572 1.04l.066.066a4.686 4.686 0 010 6.63l-4.004 4.004h-.977c-4.582 0-6.876-5.539-3.637-8.778l8.261-8.263a1.407 1.407 0 011.989 0l.021.021a1.409 1.409 0 01-.001 1.99zM180.05 45.605l-2.042 2.042c-.917.915-2.4.915-3.315 0l-.034-.032a2.347 2.347 0 010-3.317l2.042-2.042a2.345 2.345 0 013.315 0l.034.034c.914.915.914 2.4 0 3.315zm8.234-8.236c3.239-3.239.945-8.778-3.637-8.778h-.977l-4.004 4.004a4.686 4.686 0 000 6.63l.066.068a4.69 4.69 0 006.63 0l1.922-1.924z"/><path fill="#2C1644" d="M8.671 39.386a4.386 4.386 0 01-.753-1.366 4.922 4.922 0 01-.282-1.648c1.036 0 1.766-.172 2.19-.518.424-.345.636-.957.636-1.837V11.885c0-.878-.212-1.499-.636-1.86-.424-.36-1.154-.542-2.19-.542 0-.533.094-1.067.282-1.601.188-.534.439-.989.753-1.366h11.443c.314.377.565.832.754 1.366.188.534.282 1.067.282 1.601-1.036 0-1.766.181-2.19.542-.424.361-.635.982-.635 1.86v22.133c0 .879.212 1.491.635 1.837.424.345 1.154.518 2.19.518 0 .565-.094 1.115-.282 1.648-.188.534-.44.989-.754 1.366H8.671zM47.699 38.209c-.44.565-1.099 1.005-1.978 1.318a8.337 8.337 0 01-2.825.471 6.528 6.528 0 01-2.684-.588c-.879-.393-1.491-.934-1.836-1.625-.628.817-1.405 1.389-2.331 1.719-.926.33-2.08.494-3.461.494-1.758 0-3.375-.447-4.85-1.342-1.476-.895-2.66-2.229-3.555-4.002-.895-1.773-1.342-3.948-1.342-6.522 0-3.045.572-5.635 1.719-7.77 1.145-2.135 2.66-3.736 4.544-4.803 1.884-1.067 3.956-1.601 6.216-1.601.534 0 1.491.063 2.873.188l-.142-2.825V8.966c0-.785-.22-1.365-.659-1.742-.44-.377-1.271-.565-2.496-.565V4.727c1.099-.596 2.527-1.13 4.285-1.601 1.758-.471 3.139-.706 4.144-.706.722 0 1.248.165 1.577.494s.494.888.494 1.672v29.573c0 1.538.754 2.449 2.26 2.731l.047 1.319zm-9.654-3.061V18.666c-.659-.91-1.538-1.366-2.637-1.366-1.382 0-2.488.723-3.319 2.166-.833 1.445-1.248 3.783-1.248 7.017 0 3.108.463 5.47 1.389 7.087.925 1.618 2.126 2.425 3.602 2.425.973.001 1.711-.282 2.213-.847zM66.809 32.699c.251.252.471.628.659 1.13.188.503.282.942.282 1.318 0 .565-.377 1.217-1.13 1.955-.753.738-1.798 1.373-3.132 1.907-1.335.533-2.833.8-4.497.8-2.324 0-4.356-.502-6.098-1.507s-3.085-2.465-4.026-4.38c-.942-1.914-1.413-4.175-1.413-6.781 0-2.668.51-5.007 1.531-7.017 1.019-2.009 2.425-3.555 4.214-4.638 1.789-1.083 3.814-1.625 6.074-1.625 2.857 0 5.133.832 6.828 2.496 1.695 1.664 2.543 3.972 2.543 6.922 0 1.382-.22 2.472-.659 3.272-.44.801-1.225 1.201-2.355 1.201H55.46c.188 4.552 2.135 6.828 5.839 6.828 1.978.003 3.814-.625 5.51-1.881zM56.543 18.737c-.659 1.083-1.02 2.896-1.083 5.439h4.756c.502 0 .832-.172.989-.518.157-.345.235-.879.235-1.601 0-1.852-.22-3.139-.659-3.861-.44-.722-1.036-1.083-1.79-1.083-.972-.001-1.789.541-2.448 1.624zM96.749 38.115c-.471.471-1.311.847-2.52 1.13a15.241 15.241 0 01-3.461.424c-1.35 0-2.348-.252-2.99-.753-.644-.502-.965-1.302-.965-2.402V21.821c0-1.224-.267-2.103-.8-2.637-.534-.533-1.24-.8-2.119-.8-1.288 0-2.371.518-3.249 1.554V34.3c0 .911.196 1.57.588 1.978.393.408 1.06.612 2.002.612 0 .942-.361 1.774-1.083 2.496H71.461c-.753-.753-1.13-1.585-1.13-2.496.942 0 1.616-.204 2.024-.612.408-.408.613-1.067.613-1.978V20.55c0-.848-.235-1.452-.707-1.813-.471-.36-1.288-.541-2.449-.541v-2.119c1.005-.565 2.425-1.083 4.262-1.554 1.836-.471 3.225-.706 4.167-.706.722 0 1.279.228 1.672.683.392.455.619 1.311.683 2.566a8.67 8.67 0 013.061-2.378c1.224-.581 2.605-.871 4.144-.871 2.26 0 3.932.573 5.015 1.719 1.083 1.146 1.625 3.022 1.625 5.627v12.856c0 1.538.753 2.449 2.26 2.731l.048 1.365zM106.525 18.619v13.279c0 .942.188 1.594.565 1.954.377.361.91.542 1.601.542.596 0 1.224-.157 1.883-.471.66-.314 1.178-.706 1.554-1.178.313.252.542.628.683 1.13.142.503.212.958.212 1.365 0 .723-.252 1.429-.753 2.119-.503.691-1.256 1.256-2.261 1.695-1.005.439-2.213.659-3.626.659-2.197 0-3.964-.627-5.298-1.884-1.334-1.255-2.001-3.343-2.001-6.263v-12.95h-2.967v-2.872c.816-.125 1.609-.651 2.378-1.577.769-.926 1.428-2.087 1.978-3.485a16.54 16.54 0 001.06-4.167 9.516 9.516 0 011.553-.141c1.131 0 1.97.322 2.52.965.549.644.825 1.358.825 2.142v4.944h5.462c0 .942-.048 1.75-.142 2.425-.094.675-.298 1.264-.612 1.766h-4.614zM124.56 34.3c0 .911.227 1.562.683 1.954.454.393 1.154.589 2.095.589 0 .973-.362 1.821-1.083 2.543h-10.642c-.723-.722-1.083-1.57-1.083-2.543.942 0 1.625-.196 2.049-.589.423-.392.635-1.06.635-2.001V20.597c0-.879-.212-1.507-.635-1.884-.424-.377-1.248-.565-2.472-.565v-2.072c.753-.471 2.032-.965 3.838-1.483 1.805-.518 3.335-.777 4.591-.777.722 0 1.24.165 1.554.495.313.33.471.887.471 1.672V34.3z"/><path fill="#FCDD4E" stroke="#381B51" stroke-width="1.497" stroke-miterlimit="10" d="M123.972 9.319c-.832.8-1.939 1.201-3.319 1.201-1.35 0-2.425-.4-3.225-1.201-.801-.801-1.201-1.876-1.201-3.226 0-1.319.416-2.385 1.248-3.202.832-.816 1.923-1.225 3.273-1.225 1.349 0 2.432.408 3.249 1.225.816.817 1.224 1.883 1.224 3.202-.002 1.35-.418 2.425-1.249 3.226z"/><path fill="#2C1644" d="M136.926 39.81v3.438c0 .847.306 1.49.919 1.93.612.44 1.31.66 2.095.66 0 .942-.362 1.773-1.083 2.496H128.45c-.753-.754-1.13-1.586-1.13-2.496.911 0 1.508-.189 1.79-.565s.423-1.052.423-2.024V20.691c0-.848-.235-1.452-.706-1.813-.472-.36-1.289-.541-2.449-.541v-2.119c1.004-.596 2.284-1.122 3.838-1.577 1.554-.455 2.754-.683 3.603-.683.659 0 1.192.134 1.601.4.407.267.706.761.894 1.483 1.288-1.255 3.187-1.884 5.698-1.884 1.727 0 3.312.44 4.757 1.319 1.443.879 2.597 2.206 3.46 3.979.863 1.774 1.295 3.932 1.295 6.475 0 2.92-.565 5.447-1.695 7.582-1.131 2.135-2.669 3.767-4.615 4.897-1.947 1.13-4.098 1.695-6.452 1.695-.282 0-.894-.032-1.836-.094zm5.039-19.589c-.943-1.381-2.183-2.072-3.721-2.072-.503 0-.942.094-1.318.282v17.565a3.46 3.46 0 001.789.471c1.382 0 2.504-.8 3.367-2.402.863-1.601 1.295-4.003 1.295-7.205.001-3.044-.47-5.258-1.412-6.639zM158.13 39.174c-1.522-.454-2.77-1.107-3.744-1.954-.973-.847-1.459-1.852-1.459-3.014 0-1.099.313-1.985.942-2.661.627-.674 1.428-1.012 2.402-1.012.878 0 1.625.282 2.237.847.612.565.918 1.303.918 2.213 0 .408-.056.761-.165 1.06-.111.298-.306.62-.589.965.251.251.722.447 1.412.588.69.141 1.428.212 2.213.212 1.067 0 1.907-.196 2.52-.589.612-.392.918-.902.918-1.53 0-.847-.393-1.577-1.178-2.19-.785-.613-2.041-1.373-3.766-2.284-1.758-.942-3.092-1.719-4.003-2.331-.911-.612-1.719-1.444-2.424-2.496-.707-1.052-1.06-2.347-1.06-3.885 0-2.135.878-3.862 2.637-5.18 1.758-1.319 4.192-1.978 7.299-1.978 3.045 0 5.314.542 6.804 1.625 1.491 1.083 2.237 2.378 2.237 3.885 0 .942-.306 1.712-.918 2.307-.613.597-1.359.895-2.237.895-.817 0-1.516-.242-2.095-.73-.582-.487-.871-1.122-.871-1.908 0-.407.062-.824.188-1.248.125-.424.297-.777.517-1.059-.628-.502-1.57-.754-2.825-.754-1.005 0-1.789.235-2.355.707-.565.471-.847 1.067-.847 1.789 0 .973.393 1.774 1.178 2.402.784.628 2.04 1.382 3.767 2.26 1.631.847 2.919 1.585 3.861 2.213.943.628 1.758 1.46 2.449 2.496.69 1.036 1.036 2.307 1.036 3.814 0 2.449-.997 4.262-2.99 5.439-1.993 1.177-4.466 1.766-7.416 1.766-1.54.003-3.07-.225-4.593-.68z"/></svg>
